<svg data-v-423bf9ae="" xmlns="http://www.w3.org/2000/svg" viewBox="0 0 189.55062986079696 60" class="font" height="40" width="126.31578947368422"><!----><!----><defs data-v-423bf9ae=""><linearGradient data-v-423bf9ae="" gradientTransform="rotate(25)" id="559809d9-ecb0-47c6-87d4-f060c5c30312" x1="0%" y1="0%" x2="100%" y2="0%"><stop data-v-423bf9ae="" offset="0%" style="stop-color: rgb(142, 66, 211); stop-opacity: 1;"></stop><stop data-v-423bf9ae="" offset="100%" style="stop-color: rgb(212, 105, 117); stop-opacity: 1;"></stop></linearGradient></defs><g data-v-423bf9ae="" id="580eef91-ab1d-414d-9c07-69b12cdb6a46" fill="url(#559809d9-ecb0-47c6-87d4-f060c5c30312)" transform="matrix(4.569687366264075,0,0,4.569687366264075,-3.153085620382768,-23.533889895222174)"><path d="M4.38 11.09Q5.07 11.09 5.68 11.38Q6.29 11.68 6.57 12.28L6.57 12.28L5.56 12.82Q5.33 12.50 4.94 12.24Q4.55 11.98 4.10 11.98L4.10 11.98Q3.39 11.98 2.86 12.36Q2.32 12.73 2.04 13.36Q1.76 13.99 1.76 14.76L1.76 14.76Q1.76 15.86 2.14 16.55Q2.52 17.25 3.33 17.25L3.33 17.25Q4.48 17.25 4.91 16.32Q5.35 15.40 5.35 14.31L5.35 14.31L5.35 13.68L6.58 13.16L6.58 16.84Q6.58 17.02 6.68 17.19Q6.78 17.36 6.97 17.36L6.97 17.36Q7.38 17.36 7.71 16.80L7.71 16.80L7.92 17.02Q7.76 17.50 7.34 17.83Q6.92 18.16 6.50 18.16L6.50 18.16Q5.89 18.16 5.61 17.71Q5.32 17.26 5.32 16.52L5.32 16.52L5.29 16.52Q4.94 17.26 4.35 17.76Q3.75 18.26 3.09 18.26L3.09 18.26Q1.90 18.26 1.29 17.44Q0.69 16.62 0.69 15.25L0.69 15.25Q0.69 14.15 1.18 13.20Q1.67 12.24 2.51 11.66Q3.36 11.09 4.38 11.09L4.38 11.09ZM10.53 5.15L10.53 15.11L10.58 15.11Q10.72 14.34 11.08 13.38Q11.44 12.42 12.04 11.69Q12.64 10.96 13.45 10.96L13.45 10.96Q13.89 10.96 14.09 11.28Q14.29 11.59 14.33 11.98Q14.36 12.38 14.36 13.02L14.36 13.02L14.36 16.91Q14.36 17.08 14.47 17.23Q14.57 17.39 14.80 17.39L14.80 17.39Q15.16 17.39 15.54 16.84L15.54 16.84L15.71 17.05Q15.51 17.51 15.09 17.84Q14.66 18.16 14.22 18.16L14.22 18.16Q13.13 18.16 13.13 16.74L13.13 16.74L13.13 13.03Q13.13 12.85 13.05 12.70Q12.98 12.54 12.80 12.54L12.80 12.54Q12.08 12.54 11.56 13.66Q11.05 14.77 10.77 16.11Q10.49 17.44 10.49 17.92L10.49 17.92L9.24 18.28L9.24 5.68L10.53 5.15ZM24.25 10.96Q24.67 10.96 24.90 11.24Q25.13 11.51 25.13 12.15L25.13 12.15L25.13 16.91Q25.13 17.12 25.23 17.26Q25.33 17.39 25.49 17.39L25.49 17.39Q25.66 17.39 25.86 17.25Q26.05 17.11 26.24 16.84L26.24 16.84L26.46 17.05Q26.17 17.68 25.76 17.93Q25.35 18.17 25.61 18.17Q25.86 18.16 25.00 18.16L25.00 18.16Q23.84 18.16 23.84 16.74L23.84 16.74L23.84 12.88Q23.84 12.74 23.77 12.64Q23.70 12.54 23.59 12.54L23.59 12.54Q23.28 12.54 22.92 13.22Q22.55 13.89 22.30 15.11Q22.05 16.34 22.05 17.92L22.05 17.92L20.78 18.28L20.78 12.88Q20.78 12.74 20.71 12.64Q20.64 12.54 20.54 12.54L20.54 12.54Q20.26 12.54 19.89 13.22Q19.52 13.90 19.24 15.13Q18.97 16.35 18.97 17.92L18.97 17.92L17.77 18.28L17.77 12.29Q17.77 12.05 17.65 11.91Q17.53 11.77 17.35 11.77L17.35 11.77Q17.00 11.77 16.63 12.38L16.63 12.38L16.41 12.15Q16.70 11.52 17.11 11.25Q17.51 10.98 17.61 10.97Q17.70 10.96 17.88 10.96L17.88 10.96Q18.55 10.96 18.79 11.25Q19.03 11.54 19.03 12.01L19.03 12.01L19.03 14.35L19.07 14.35Q19.42 12.82 20.01 11.89Q20.61 10.96 21.20 10.96L21.20 10.96Q21.63 10.96 21.85 11.23Q22.06 11.49 22.06 12.15L22.06 12.15L22.06 14.35L22.15 14.35Q22.50 12.82 23.08 11.89Q23.66 10.96 24.25 10.96L24.25 10.96ZM31.49 10.96Q32.24 10.96 32.75 11.37Q33.25 11.77 33.25 12.57L33.25 12.57Q33.25 13.22 32.56 14.01Q31.86 14.80 30.93 15.46Q30.00 16.11 29.34 16.38L29.34 16.38Q29.69 16.94 30.14 17.16Q30.59 17.37 31.19 17.37L31.19 17.37Q31.86 17.37 32.53 17.03Q33.19 16.69 33.63 16.14L33.63 16.14L33.80 16.44Q33.11 17.32 32.34 17.79Q31.57 18.26 30.45 18.26L30.45 18.26Q29.60 18.26 28.92 17.84Q28.25 17.42 27.87 16.71Q27.50 16.00 27.50 15.18L27.50 15.18Q27.50 14.14 28.06 13.16Q28.62 12.18 29.54 11.57Q30.46 10.96 31.49 10.96L31.49 10.96ZM30.76 11.84Q30.14 11.84 29.66 12.24Q29.18 12.63 28.90 13.24Q28.63 13.86 28.63 14.52L28.63 14.52Q28.63 15.39 29.04 16.00L29.04 16.00Q29.62 15.74 30.31 15.20Q31.00 14.66 31.47 14.03Q31.95 13.40 31.95 12.88L31.95 12.88Q31.95 11.84 30.76 11.84L30.76 11.84ZM40.84 5.15L40.84 16.84Q40.84 17.04 40.93 17.20Q41.02 17.36 41.22 17.36L41.22 17.36Q41.41 17.36 41.61 17.19Q41.80 17.01 41.90 16.80L41.90 16.80L42.17 17.02Q41.94 17.50 41.53 17.83Q41.12 18.16 40.73 18.16L40.73 18.16Q40.08 18.16 39.79 17.79Q39.49 17.43 39.51 16.53L39.51 16.53L39.45 16.53Q38.60 18.26 37.37 18.26L37.37 18.26Q36.15 18.26 35.50 17.41Q34.85 16.56 34.85 15.29L34.85 15.29Q34.85 14.28 35.28 13.29Q35.71 12.29 36.52 11.65Q37.32 11.00 38.37 11.00L38.37 11.00Q39.03 11.00 39.52 11.34L39.52 11.34L39.52 5.68L40.84 5.15ZM38.29 11.83Q37.51 11.83 36.99 12.32Q36.48 12.81 36.25 13.50Q36.01 14.20 36.01 14.80L36.01 14.80Q36.01 15.27 36.18 15.85Q36.34 16.42 36.72 16.84Q37.10 17.25 37.69 17.25L37.69 17.25Q38.75 17.25 39.14 16.33Q39.52 15.41 39.52 14.31L39.52 14.31L39.52 12.39Q39.28 12.14 38.97 11.98Q38.65 11.83 38.29 11.83L38.29 11.83Z"></path></g><!----><!----></svg>